HIERARCHY
ROOT hip
{
  OFFSET -26.4418 83.9567 -17.5737
  CHANNELS 6 Xposition Yposition Zposition Zrotation Xrotation Yrotation
  JOINT abdomen
  {
    OFFSET 0 20.6881 -0.73152
    CHANNELS 3 Zrotation Xrotation Yrotation
    JOINT chest
    {
      OFFSET 0 11.7043 -0.48768
      CHANNELS 3 Zrotation Xrotation Yrotation
      JOINT neck
      {
        OFFSET 0 22.1894 -2.19456
        CHANNELS 3 Zrotation Xrotation Yrotation
        JOINT head
        {
          OFFSET -0.24384 7.07133 1.2192
          CHANNELS 3 Zrotation Xrotation Yrotation
          JOINT leftEye
          {
            OFFSET 4.14528 8.04674 8.04672
            CHANNELS 3 Zrotation Xrotation Yrotation
            End Site
            {
              OFFSET 1 0 0
            }
          }
          JOINT rightEye
          {
            OFFSET -3.6576 8.04674 8.04672
            CHANNELS 3 Zrotation Xrotation Yrotation
            End Site
            {
              OFFSET 1 0 0
            }
          }
        }
      }
      JOINT rCollar
      {
        OFFSET -2.68224 19.2634 -4.8768
        CHANNELS 3 Zrotation Xrotation Yrotation
        JOINT rShldr
        {
          OFFSET -8.77824 -1.95073 1.46304
          CHANNELS 3 Zrotation Xrotation Yrotation
          JOINT rForeArm
          {
            OFFSET -28.1742 -1.7115 0.48768
            CHANNELS 3 Zrotation Xrotation Yrotation
            JOINT rHand
            {
              OFFSET -22.5879 0.773209 7.07136
              CHANNELS 3 Zrotation Xrotation Yrotation
              JOINT rThumb1
              {
                OFFSET -1.2192 -0.487915 3.41376
                CHANNELS 3 Zrotation Xrotation Yrotation
                JOINT rThumb2
                {
                  OFFSET -3.37035 -0.52449 3.41376
                  CHANNELS 3 Zrotation Xrotation Yrotation
                  End Site
                  {
                    OFFSET -1.78271 -1.18214 1.43049
                  }
                }
              }
              JOINT rIndex1
              {
                OFFSET -7.75947 0.938293 5.60832
                CHANNELS 3 Zrotation Xrotation Yrotation
                JOINT rIndex2
                {
                  OFFSET -2.54057 -0.884171 1.56538
                  CHANNELS 3 Zrotation Xrotation Yrotation
                  End Site
                  {
                    OFFSET -1.62519 -0.234802 1.16502
                  }
                }
              }
              JOINT rMid1
              {
                OFFSET -8.24714 1.18213 3.41376
                CHANNELS 3 Zrotation Xrotation Yrotation
                JOINT rMid2
                {
                  OFFSET -3.10165 -0.590103 1.0647
                  CHANNELS 3 Zrotation Xrotation Yrotation
                  End Site
                  {
                    OFFSET -2.48547 -0.328903 0.83742
                  }
                }
              }
              JOINT rRing1
              {
                OFFSET -8.82822 0.546677 1.51678
                CHANNELS 3 Zrotation Xrotation Yrotation
                JOINT rRing2
                {
                  OFFSET -2.60934 -0.819778 -0.0198488
                  CHANNELS 3 Zrotation Xrotation Yrotation
                  End Site
                  {
                    OFFSET -2.33842 -0.294052 0.168128
                  }
                }
              }
              JOINT rPinky1
              {
                OFFSET -8.27202 -0.0477905 -0.4584
                CHANNELS 3 Zrotation Xrotation Yrotation
                JOINT rPinky2
                {
                  OFFSET -1.82734 -0.647385 -0.700984
                  CHANNELS 3 Zrotation Xrotation Yrotation
                  End Site
                  {
                    OFFSET -1.69225 -0.51767 -0.607171
                  }
                }
              }
            }
          }
        }
      }
      JOINT lCollar
      {
        OFFSET 2.68224 19.2634 -4.8768
        CHANNELS 3 Zrotation Xrotation Yrotation
        JOINT lShldr
        {
          OFFSET 8.77824 -1.95073 1.46304
          CHANNELS 3 Zrotation Xrotation Yrotation
          JOINT lForeArm
          {
            OFFSET 28.1742 -1.7115 0.48768
            CHANNELS 3 Zrotation Xrotation Yrotation
            JOINT lHand
            {
              OFFSET 22.5879 0.773209 7.07136
              CHANNELS 3 Zrotation Xrotation Yrotation
              JOINT lThumb1
              {
                OFFSET 1.2192 -0.487915 3.41376
                CHANNELS 3 Zrotation Xrotation Yrotation
                JOINT lThumb2
                {
                  OFFSET 3.37035 -0.52449 3.41376
                  CHANNELS 3 Zrotation Xrotation Yrotation
                  End Site
                  {
                    OFFSET 1.78271 -1.18214 1.43049
                  }
                }
              }
              JOINT lIndex1
              {
                OFFSET 7.75947 0.938293 5.60832
                CHANNELS 3 Zrotation Xrotation Yrotation
                JOINT lIndex2
                {
                  OFFSET 2.54057 -0.884171 1.56538
                  CHANNELS 3 Zrotation Xrotation Yrotation
                  End Site
                  {
                    OFFSET 1.62519 -0.234802 1.16502
                  }
                }
              }
              JOINT lMid1
              {
                OFFSET 8.24714 1.18213 3.41376
                CHANNELS 3 Zrotation Xrotation Yrotation
                JOINT lMid2
                {
                  OFFSET 3.10165 -0.590103 1.0647
                  CHANNELS 3 Zrotation Xrotation Yrotation
                  End Site
                  {
                    OFFSET 2.48547 -0.328903 0.83742
                  }
                }
              }
              JOINT lRing1
              {
                OFFSET 8.82822 0.546677 1.51678
                CHANNELS 3 Zrotation Xrotation Yrotation
                JOINT lRing2
                {
                  OFFSET 2.60934 -0.819778 -0.0198488
                  CHANNELS 3 Zrotation Xrotation Yrotation
                  End Site
                  {
                    OFFSET 2.33842 -0.294052 0.168128
                  }
                }
              }
              JOINT lPinky1
              {
                OFFSET 8.27202 -0.0477905 -0.4584
                CHANNELS 3 Zrotation Xrotation Yrotation
                JOINT lPinky2
                {
                  OFFSET 1.82734 -0.647385 -0.700984
                  CHANNELS 3 Zrotation Xrotation Yrotation
                  End Site
                  {
                    OFFSET 1.69225 -0.51767 -0.607171
                  }
                }
              }
            }
          }
        }
      }
    }
  }
  JOINT rButtock
  {
    OFFSET -8.77824 4.35084 1.2192
    CHANNELS 3 Zrotation Xrotation Yrotation
    JOINT rThigh
    {
      OFFSET 0 -1.70687 -2.19456
      CHANNELS 3 Zrotation Xrotation Yrotation
      JOINT rShin
      {
        OFFSET 0 -36.8199 0.73152
        CHANNELS 3 Zrotation Xrotation Yrotation
        JOINT rFoot
        {
          OFFSET 0.73152 -45.1104 -5.12064
          CHANNELS 3 Zrotation Xrotation Yrotation
          End Site
          {
            OFFSET -1.1221 -3.69964 12.103
          }
        }
      }
    }
  }
  JOINT lButtock
  {
    OFFSET 8.77824 4.35084 1.2192
    CHANNELS 3 Zrotation Xrotation Yrotation
    JOINT lThigh
    {
      OFFSET 0 -1.70687 -2.19456
      CHANNELS 3 Zrotation Xrotation Yrotation
      JOINT lShin
      {
        OFFSET 0 -36.8199 0.73152
        CHANNELS 3 Zrotation Xrotation Yrotation
        JOINT lFoot
        {
          OFFSET -0.73152 -45.1104 -5.12064
          CHANNELS 3 Zrotation Xrotation Yrotation
          End Site
          {
            OFFSET 1.1221 -3.69964 12.103
          }
        }
      }
    }
  }
}
MOTION
Frames:	7
Frame Time:	0.00833333
-31.892 84.1002 7.08442 1.15515 0.0031186 -0.0216559 -1.51927 -0.00282943 -0.0413936 -0.418701 0.00102616 -0.0725115 -7.37277e-015 7.95139e-016 1.2424e-016 -2.19812e-014 3.18055e-015 4.69008e-016 -0 0 0 -0 0 0 -3.52977e-015 1.78596e-017 2.98177e-016 -7.59831e-014 -2.23633e-016 2.98177e-015 -1.30482e-012 4.00949e-013 5.40694e-014 -1.49882e-011 -3.38331e-013 4.07111e-013 -3.53435e-011 1.42382e-013 1.0305e-012 -6.10468e-011 2.51264e-013 1.7827e-012 -3.53399e-011 1.40342e-013 1.03368e-012 7.73091 5.47488 0.417314 -3.53439e-011 1.42131e-013 1.03686e-012 2.90554 0.965183 0.102902 -3.53423e-011 1.4223e-013 1.03607e-012 10.2786 0.731801 0.0259123 -3.53543e-011 1.46306e-013 1.04322e-012 2.22167 -0.733487 -0.20892 -3.82551e-015 1.80537e-017 -9.93923e-017 -7.79129e-014 2.91965e-016 9.93923e-016 -1.31814e-012 -3.72721e-013 5.08889e-014 -1.49664e-011 4.69181e-013 4.26194e-013 -3.53221e-011 2.11116e-013 1.02732e-012 -6.09919e-011 3.68944e-013 1.79065e-012 -3.5326e-011 2.12302e-013 1.04322e-012 -7.73091 5.47488 -0.417314 -3.53214e-011 2.10513e-013 1.0305e-012 -2.90554 0.965183 -0.102902 -3.53232e-011 2.10612e-013 1.03289e-012 -10.2786 0.731801 -0.0259123 -3.53177e-011 2.16278e-013 1.02414e-012 -2.22167 -0.733487 0.20892 -2.03217e-016 0 -3.88251e-019 -0.640542 -1.92323 -0.00643625 -0.00925463 -2.07856 -0.0764277 -0.512148 3.99733 0.140311 2.03217e-016 0 3.88251e-019 -1.66974 -6.49782 0.154697 -0.00231055 6.208 -0.0679829 0.534051 0.285489 -0.0665687 
-32.0066 82.0333 1.80804 -16.5364 -19.7953 25.1379 -0.77862 0.612407 1.06039 0.814527 1.09519 0.241282 0.500669 0.375255 -0.483128 -1.34067 6.43156 0.0155523 -0 0 0 -0 0 0 3.424e-014 1.0068e-012 -7.73241e-015 25.3324 7.84393 7.44405 -3.085 -1.23307 4.9862 0.214425 -10.3045 -1.3651 -4.01462e-010 -7.17065e-011 -1.2615e-010 -6.88669e-010 -1.24678e-010 -2.27449e-010 -4.01459e-010 -7.17035e-011 -1.26154e-010 7.73091 5.47488 0.417314 -4.01463e-010 -7.17061e-011 -1.26146e-010 2.90554 0.965183 0.102902 -4.0146e-010 -7.17062e-011 -1.26144e-010 10.2786 0.731801 0.0259123 -4.01471e-010 -7.16984e-011 -1.26139e-010 2.22167 -0.733487 -0.20892 3.40028e-014 1.0068e-012 -8.05971e-015 -24.6914 22.1194 -8.75631 3.44856 -1.43966 -5.5166 -0.266367 -11.4923 1.5003 -5.5312e-010 -3.77227e-010 4.07418e-010 -9.66443e-010 -6.43839e-010 6.86096e-010 -5.53125e-010 -3.77225e-010 4.07438e-010 -7.73091 5.47488 -0.417314 -5.5312e-010 -3.77227e-010 4.07421e-010 -2.90554 0.965183 -0.102902 -5.53123e-010 -3.77227e-010 4.07423e-010 -10.2786 0.731801 -0.0259123 -5.53115e-010 -3.77223e-010 4.07413e-010 -2.22167 -0.733487 0.20892 -2.03217e-016 0 -3.88251e-019 -2.96879 -9.82035 -0.245749 -0.0111388 4.18029 0.0223941 -0.539501 2.1316 -2.38162 2.03217e-016 0 3.88251e-019 3.06707 -14.0463 2.87319 -0.0231973 12.4446 -0.195806 0.352406 -1.59685 -0.0797478 
-32.0175 82.0313 1.80772 -17.3634 -27.7274 57.7742 -0.0227865 1.26282 2.22413 2.10553 2.25098 0.572952 1.03666 0.772065 -0.994472 -2.76177 13.2313 0.0316962 -0 0 0 -0 0 0 7.88021e-014 2.17794e-012 -1.63128e-014 49.8451 15.6942 15.7737 -6.11092 -2.50372 10.2599 -0.127589 -21.1581 -2.96047 -7.97606e-010 -1.35457e-010 -2.20981e-010 -1.36878e-009 -2.3636e-010 -4.01736e-010 -7.97603e-010 -1.35448e-010 -2.20993e-010 7.73091 5.47488 0.417314 -7.97606e-010 -1.35456e-010 -2.2098e-010 2.90554 0.965183 0.102902 -7.97603e-010 -1.35456e-010 -2.20976e-010 10.2786 0.731801 0.0259123 -7.97613e-010 -1.35444e-010 -2.20973e-010 2.22167 -0.733487 -0.20892 7.86281e-014 2.17794e-012 -1.65644e-014 -41.0793 43.5476 -23.3261 6.79251 -2.91601 -11.3568 0.160655 -23.6186 3.30173 -1.11606e-009 -7.74913e-010 8.28097e-010 -1.95032e-009 -1.32285e-009 1.3937e-009 -1.11607e-009 -7.74912e-010 8.2812e-010 -7.73091 5.47488 -0.417314 -1.11606e-009 -7.74913e-010 8.281e-010 -2.90554 0.965183 -0.102902 -1.11606e-009 -7.74913e-010 8.28101e-010 -10.2786 0.731801 -0.0259123 -1.11605e-009 -7.74912e-010 8.2809e-010 -2.22167 -0.733487 0.20892 -2.03217e-016 0 -3.88251e-019 -5.50499 -18.1678 -0.51665 -0.0368575 10.7966 0.129136 -0.748087 0.147102 -5.04393 2.03217e-016 0 3.88251e-019 8.91074 -21.9498 6.00849 -0.0131514 19.0366 -0.340461 0.159545 -3.58656 -0.0931788 
-32.0179 82.0303 1.81315 -15.2439 -17.4194 81.6073 0.631697 1.8402 3.26547 3.24498 3.28317 0.870166 1.52099 1.12544 -1.44963 -4.03303 19.2947 0.0491223 -0 0 0 -0 0 0 1.0978e-013 3.02035e-012 -2.37936e-014 69.6626 21.8879 23.9435 -8.61821 -3.5873 14.9852 -1.03416 -30.8372 -4.69402 -1.1337e-009 -2.15404e-010 -3.8051e-010 -1.94391e-009 -3.74536e-010 -6.85914e-010 -1.1337e-009 -2.15391e-010 -3.80529e-010 7.73091 5.47488 0.417314 -1.1337e-009 -2.15403e-010 -3.80512e-010 2.90554 0.965183 0.102902 -1.1337e-009 -2.15403e-010 -3.80505e-010 10.2786 0.731801 0.0259123 -1.13371e-009 -2.15388e-010 -3.80503e-010 2.22167 -0.733487 -0.20892 1.09659e-013 3.02036e-012 -2.39803e-014 -39.8067 57.056 -49.2317 9.52499 -4.15911 -16.5895 1.3282 -34.372 5.34618 -1.58872e-009 -1.1321e-009 1.2202e-009 -2.77735e-009 -1.93225e-009 2.05471e-009 -1.58872e-009 -1.1321e-009 1.22023e-009 -7.73091 5.47488 -0.417314 -1.58872e-009 -1.1321e-009 1.2202e-009 -2.90554 0.965183 -0.102902 -1.58872e-009 -1.1321e-009 1.2202e-009 -10.2786 0.731801 -0.0259123 -1.58871e-009 -1.1321e-009 1.22019e-009 -2.22167 -0.733487 0.20892 -2.03217e-016 0 -3.88251e-019 -7.84207 -25.6127 -0.791344 -0.0814758 16.6979 0.229433 -1.08562 -1.58102 -7.42269 2.03217e-016 0 3.88251e-019 14.9584 -28.879 9.20738 0.0268321 24.9174 -0.483449 -0.0135022 -5.36153 -0.106481 
-32.0143 82.0304 1.81173 -17.2901 -3.72021 89.3041 1.08288 2.23755 3.99936 4.03086 4.00673 1.08 1.86271 1.37055 -1.7641 -4.92283 23.5174 0.0677704 -0 0 0 -0 0 0 1.06796e-013 3.04093e-012 -2.85256e-014 82.3275 25.5149 30.153 -10.2728 -4.30888 18.3141 -2.12394 -37.6502 -6.22467 -1.31967e-009 -3.35846e-010 -7.01783e-010 -2.25662e-009 -5.78944e-010 -1.24482e-009 -1.31967e-009 -3.3583e-010 -7.01805e-010 7.73091 5.47488 0.417314 -1.31967e-009 -3.35844e-010 -7.01786e-010 2.90554 0.965183 0.102902 -1.31967e-009 -3.35844e-010 -7.01778e-010 10.2786 0.731801 0.0259123 -1.31968e-009 -3.35828e-010 -7.01777e-010 2.22167 -0.733487 -0.20892 1.06706e-013 3.04093e-012 -2.86747e-014 -28.7796 59.3228 -75.8297 11.3015 -4.97071 -20.266 2.75808 -41.7905 7.21634 -1.83566e-009 -1.38805e-009 1.54086e-009 -3.21224e-009 -2.36764e-009 2.59922e-009 -1.83567e-009 -1.38804e-009 1.54089e-009 -7.73091 5.47488 -0.417314 -1.83566e-009 -1.38804e-009 1.54087e-009 -2.90554 0.965183 -0.102902 -1.83566e-009 -1.38804e-009 1.54087e-009 -10.2786 0.731801 -0.0259123 -1.83565e-009 -1.38805e-009 1.54085e-009 -2.22167 -0.733487 0.20892 -2.03217e-016 0 -3.88251e-019 -9.52306 -30.8029 -1.0142 -0.12557 20.8119 0.303449 -1.39294 -2.69297 -9.08587 2.03217e-016 0 3.88251e-019 19.7271 -33.6122 11.7727 0.0743657 29.0207 -0.594642 -0.135355 -6.59969 -0.11917 
-32.0167 82.03 1.80235 -18.5753 2.26533 90.1888 1.27616 2.3786 4.3003 4.33149 4.30151 1.16614 2.00026 1.46344 -1.87822 -5.28163 25.1643 0.0938884 -0 0 0 -0 0 0 4.28068e-014 1.61807e-012 -2.95956e-014 87.0574 26.7184 32.6738 -10.9251 -4.59744 19.6742 -2.71382 -40.4934 -6.97177 -1.3172e-009 -5.64767e-010 -1.40015e-009 -2.23587e-009 -9.63231e-010 -2.44868e-009 -1.3172e-009 -5.64752e-010 -1.40017e-009 7.73091 5.47488 0.417314 -1.3172e-009 -5.64765e-010 -1.40015e-009 2.90554 0.965183 0.102902 -1.3172e-009 -5.64765e-010 -1.40014e-009 10.2786 0.731801 0.0259123 -1.3172e-009 -5.64752e-010 -1.40014e-009 2.22167 -0.733487 -0.20892 4.27122e-014 1.61807e-012 -2.97486e-014 -24.4632 58.1763 -85.8467 11.9797 -5.28039 -21.7332 3.49206 -44.6122 8.08257 -1.77279e-009 -1.55316e-009 1.84449e-009 -3.11091e-009 -2.64549e-009 3.12321e-009 -1.7728e-009 -1.55316e-009 1.84451e-009 -7.73091 5.47488 -0.417314 -1.77279e-009 -1.55316e-009 1.84449e-009 -2.90554 0.965183 -0.102902 -1.77279e-009 -1.55316e-009 1.84449e-009 -10.2786 0.731801 -0.0259123 -1.77278e-009 -1.55316e-009 1.84448e-009 -2.22167 -0.733487 0.20892 -2.03217e-016 0 -3.88251e-019 -10.1959 -32.8432 -1.11447 -0.145539 22.4246 0.331653 -1.49873 -2.938 -9.73464 2.03217e-016 0 3.88251e-019 21.7413 -35.4572 12.8777 0.0971101 30.6383 -0.642283 -0.184529 -7.08597 -0.129314 
-32.0209 82.0292 1.8046 -18.4434 1.58449 90.14 1.29016 2.3374 4.29177 4.28828 4.28996 1.1637 1.99056 1.4477 -1.84932 -5.25909 24.9714 0.124142 -0 0 0 -0 0 0 -6.41163e-014 -8.21885e-013 -2.80411e-014 86.5857 26.534 32.3328 -10.9055 -4.5984 19.6235 -2.70158 -40.5245 -6.97158 -1.1791e-009 -8.68707e-010 -2.36069e-009 -1.97532e-009 -1.47185e-009 -4.10082e-009 -1.17909e-009 -8.68696e-010 -2.3607e-009 7.73091 5.47488 0.417314 -1.1791e-009 -8.68705e-010 -2.36069e-009 2.90554 0.965183 0.102902 -1.17909e-009 -8.68705e-010 -2.36069e-009 10.2786 0.731801 0.0259123 -1.1791e-009 -8.68697e-010 -2.36068e-009 2.22167 -0.733487 -0.20892 -6.42407e-014 -8.21887e-013 -2.82274e-014 -25.0169 58.3503 -84.6321 11.9287 -5.26224 -21.6165 3.38106 -44.1842 7.94857 -1.48833e-009 -1.65098e-009 2.13198e-009 -2.62596e-009 -2.80671e-009 3.62576e-009 -1.48833e-009 -1.65098e-009 2.13201e-009 -7.73091 5.47488 -0.417314 -1.48833e-009 -1.65098e-009 2.13198e-009 -2.90554 0.965183 -0.102902 -1.48833e-009 -1.65098e-009 2.13198e-009 -10.2786 0.731801 -0.0259123 -1.48832e-009 -1.65098e-009 2.13197e-009 -2.22167 -0.733487 0.20892 -2.03217e-016 0 -3.88251e-019 -10.1243 -32.6338 -1.11101 -0.142468 22.2506 0.32441 -1.42881 -2.57098 -9.65621 2.03217e-016 0 3.88251e-019 21.5218 -35.296 12.7586 0.0927406 30.4804 -0.638574 -0.18151 -7.03521 -0.137653 
